#N canvas 0 22 450 300 10;
#X msg 67 89 A;
#X msg 67 126 B;
#X msg 118 125 C;
#X msg 293 86 A;
#X msg 294 123 B;
#X msg 347 124 C;
#X obj 119 156 print 1;
#X obj 66 155 print 2;
#X obj 8 156 print 3;
#X obj 348 155 print 1;
#X obj 295 154 print 2;
#X obj 237 155 print 3;
#X text -30 64 lines connected in order "print 3 \, 2 \, 1";
#X text 223 61 lines connected in order "print 1 \, 2 \, 3";
#X connect 0 0 8 0;
#X connect 0 0 1 0;
#X connect 0 0 2 0;
#X connect 1 0 7 0;
#X connect 2 0 6 0;
#X connect 3 0 5 0;
#X connect 3 0 4 0;
#X connect 3 0 11 0;
#X connect 4 0 10 0;
#X connect 5 0 9 0;
