#N canvas 1 25 1920 966 10;
#X obj 46 8 receive fromSystem;
#X obj 46 33 list trim;
#X obj 331 119 unpack 0 0 0;
#X obj 95 119 unpack 0 0;
#X obj 47 119 int;
#X text 176 9 1 GET SENSOR DATA FROM PHONE;
#X obj 47 58 route /shake /tilts /accel /gyro /motion /compass;
#X obj 965 48 receive fromGUI;
#X obj 965 160 send toSystem;
#X msg 965 132 list /enableLocation \$1;
#X obj 965 76 list trim;
#X obj 965 104 route /gpsToggle;
#X text 49 103 Shake;
#X text 104 103 Tilts;
#X text 335 103 Motion;
#X text 964 9 Enables compass on phone through a toggle on the .mmp Do not modify;
#X obj 538 214 send toGUI;
#N canvas 0 22 834 545 speedlim 0;
#X msg 83 139 1;
#X obj 57 164 spigot 1;
#X obj 87 93 t b b;
#X msg 112 139 0;
#X obj 85 115 delay 200;
#X obj 60 49 inlet;
#X obj 59 213 outlet;
#X connect 0 0 1 1;
#X connect 1 0 2 0;
#X connect 1 0 6 0;
#X connect 2 0 4 0;
#X connect 2 1 3 0;
#X connect 3 0 1 1;
#X connect 4 0 0 0;
#X connect 5 0 1 0;
#X restore 531 77 pd speedlim;
#N canvas 0 22 834 545 speedlim 0;
#X msg 83 139 1;
#X obj 57 164 spigot 1;
#X obj 87 93 t b b;
#X msg 112 139 0;
#X obj 85 115 delay 200;
#X obj 60 49 inlet;
#X obj 59 213 outlet;
#X connect 0 0 1 1;
#X connect 1 0 2 0;
#X connect 1 0 6 0;
#X connect 2 0 4 0;
#X connect 2 1 3 0;
#X connect 3 0 1 1;
#X connect 4 0 0 0;
#X connect 5 0 1 0;
#X restore 558 101 pd speedlim;
#N canvas 0 22 834 545 speedlim 0;
#X msg 83 139 1;
#X obj 57 164 spigot 1;
#X obj 87 93 t b b;
#X msg 112 139 0;
#X obj 85 115 delay 200;
#X obj 60 49 inlet;
#X obj 59 213 outlet;
#X connect 0 0 1 1;
#X connect 1 0 2 0;
#X connect 1 0 6 0;
#X connect 2 0 4 0;
#X connect 2 1 3 0;
#X connect 3 0 1 1;
#X connect 4 0 0 0;
#X connect 5 0 1 0;
#X restore 670 77 pd speedlim;
#N canvas 0 22 834 545 speedlim 0;
#X msg 83 139 1;
#X obj 57 164 spigot 1;
#X obj 87 93 t b b;
#X msg 112 139 0;
#X obj 85 115 delay 200;
#X obj 60 49 inlet;
#X obj 59 213 outlet;
#X connect 0 0 1 1;
#X connect 1 0 2 0;
#X connect 1 0 6 0;
#X connect 2 0 4 0;
#X connect 2 1 3 0;
#X connect 3 0 1 1;
#X connect 4 0 0 0;
#X connect 5 0 1 0;
#X restore 712 101 pd speedlim;
#X msg 538 122 list /tiltLabel x: \$1 y: \$2;
#X msg 558 145 list /accelLabel x: \$1 y: \$2 z: \$3;
#X msg 575 167 list /gyroLabel roll: \$1 pitch: \$2 yaw: \$3;
#X msg 595 191 list /motionLabel roll: \$1 pitch: \$2 yaw: \$3;
#X obj 546 389 vsl 16 136 0 127 0 0 empty empty empty 0 -9 0 10 #fcfcfc #000000 #000000 0 1;
#X obj 546 534 / 127;
#X obj 546 343 loadbang;
#X msg 546 365 127;
#X obj 613 343 receive fromGUI;
#X obj 613 371 list trim;
#X obj 613 399 route /mySlider;
#X obj 613 427 * 127;
#X text 528 9 Visualize sensor data on interface;
#X text 725 333 Control patch from GUI with a slider;
#X floatatom 295 371 5 0 0 0 - - - 0;
#X floatatom 393 380 5 0 0 0 - - - 0;
#X obj 345 415 &&;
#X obj 356 547 tgl 15 0 empty empty empty 0 -6 0 8 #fcfcfc #000000 #000000 0 1;
#X obj 345 291 abs;
#X obj 165 698 lop~ 0.2;
#X obj 166 675 sig~;
#X obj 169 597 hsl 64 12 0.1 1 0 0 empty empty speed 16 6 1 8 #fcfcfc #000000 #000000 0 1;
#X obj 121 765 +~;
#N canvas 508 156 133 284 burn 0;
#X obj 0 44 noise~;
#X obj 73 -18 loadbang;
#X msg 102 17 0.6;
#X obj 0 149 clip~ -1 1;
#X obj 32 -52 inlet~;
#X obj 0 214 outlet~;
#X obj 25 17 *~ 150;
#X obj 0 128 *~ 120;
#X obj 0 107 hip~ 120;
#X obj 25 -4 *~;
#X obj 0 65 bp~ 8000 0.5;
#X obj 31 170 *~ 12000;
#X msg 73 17 1;
#X obj 0 86 vcf~ 0 1;
#X obj 0 193 vcf~ 0 0.6;
#X connect 0 0 10 0;
#X connect 1 0 2 0;
#X connect 1 0 12 0;
#X connect 2 0 14 2;
#X connect 3 0 14 0;
#X connect 4 0 9 0;
#X connect 4 0 9 1;
#X connect 4 0 11 0;
#X connect 6 0 13 1;
#X connect 7 0 3 0;
#X connect 8 0 7 0;
#X connect 9 0 6 0;
#X connect 10 0 13 0;
#X connect 11 0 14 1;
#X connect 12 0 13 2;
#X connect 13 0 8 0;
#X connect 14 0 5 0;
#X restore 200 724 pd burn;
#N canvas 0 0 212 234 turbine 0;
#X msg 13 21 3097 4495 5588 7471 11000;
#X obj 0 129 osc~;
#X obj 39 128 osc~;
#X obj 78 127 osc~;
#X obj 116 127 osc~;
#X obj 156 129 osc~;
#X obj 13 42 unpack f f f f f;
#X obj 0 68 sig~;
#X obj 38 68 sig~;
#X obj 78 67 sig~;
#X obj 116 67 sig~;
#X obj 155 67 sig~;
#X obj 0 97 *~;
#X obj 39 95 *~;
#X obj 79 93 *~;
#X obj 116 91 *~;
#X obj 156 92 *~;
#X obj 19 165 *~ 0.25;
#X obj 137 165 *~ 0.4;
#X obj 13 0 loadbang;
#X obj 77 196 clip~ -0.9 0.9;
#X obj 77 217 outlet~;
#X obj 76 0 inlet~ engine speed;
#X connect 0 0 6 0;
#X connect 1 0 17 0;
#X connect 2 0 17 0;
#X connect 3 0 20 0;
#X connect 4 0 18 0;
#X connect 5 0 18 0;
#X connect 6 0 7 0;
#X connect 6 1 8 0;
#X connect 6 2 9 0;
#X connect 6 3 10 0;
#X connect 6 4 11 0;
#X connect 7 0 12 0;
#X connect 8 0 13 0;
#X connect 9 0 14 0;
#X connect 10 0 15 0;
#X connect 11 0 16 0;
#X connect 12 0 1 0;
#X connect 13 0 2 0;
#X connect 14 0 3 0;
#X connect 15 0 4 0;
#X connect 16 0 5 0;
#X connect 17 0 20 0;
#X connect 18 0 20 0;
#X connect 19 0 0 0;
#X connect 20 0 21 0;
#X connect 22 0 16 1;
#X connect 22 0 15 1;
#X connect 22 0 14 1;
#X connect 22 0 13 1;
#X connect 22 0 12 1;
#X restore 120 725 pd turbine;
#X obj 121 785 lop~ 11000;
#X obj 120 745 *~ 0.5;
#X obj 122 827 dac~;
#X obj 121 805 *~ 0.1;
#X obj 288 327 <= 1;
#X obj 405 336 >= 0.5;
#X connect 0 0 1 0;
#X connect 1 0 6 0;
#X connect 3 0 39 0;
#X connect 6 0 4 0;
#X connect 6 1 3 0;
#X connect 6 1 17 0;
#X connect 6 2 18 0;
#X connect 6 3 19 0;
#X connect 6 4 2 0;
#X connect 6 5 20 0;
#X connect 7 0 10 0;
#X connect 9 0 8 0;
#X connect 10 0 11 0;
#X connect 11 0 9 0;
#X connect 17 0 21 0;
#X connect 18 0 22 0;
#X connect 19 0 23 0;
#X connect 20 0 24 0;
#X connect 21 0 16 0;
#X connect 22 0 16 0;
#X connect 23 0 16 0;
#X connect 24 0 16 0;
#X connect 25 0 26 0;
#X connect 27 0 28 0;
#X connect 28 0 25 0;
#X connect 29 0 30 0;
#X connect 30 0 31 0;
#X connect 31 0 32 0;
#X connect 32 0 25 0;
#X connect 35 0 37 0;
#X connect 36 0 37 1;
#X connect 37 0 38 0;
#X connect 38 0 42 0;
#X connect 39 0 50 0;
#X connect 39 0 51 0;
#X connect 40 0 44 0;
#X connect 40 0 45 0;
#X connect 41 0 40 0;
#X connect 42 0 41 0;
#X connect 43 0 46 0;
#X connect 44 0 43 1;
#X connect 45 0 47 0;
#X connect 46 0 49 0;
#X connect 47 0 43 0;
#X connect 49 0 48 0;
#X connect 49 0 48 1;
#X connect 50 0 35 0;
#X connect 51 0 36 0;
