#N canvas 1 25 1920 966 10;
#X obj 46 8 receive fromSystem;
#X obj 46 33 list trim;
#X obj 168 119 unpack 0 0 0;
#X obj 331 119 unpack 0 0 0;
#X obj 250 119 unpack 0 0 0;
#X obj 95 119 unpack 0 0;
#X obj 47 119 int;
#X text 176 9 1 GET SENSOR DATA FROM PHONE;
#X obj 47 58 route /shake /tilts /accel /gyro /motion /compass;
#X obj 965 48 receive fromGUI;
#X obj 965 160 send toSystem;
#X msg 965 132 list /enableLocation \$1;
#X obj 965 76 list trim;
#X obj 965 104 route /gpsToggle;
#X text 49 103 Shake;
#X text 104 103 Tilts;
#X text 170 103 Accel;
#X text 254 103 Gyro;
#X text 335 103 Motion;
#X text 205 262 Compass;
#X text 964 9 Enables compass on phone through a toggle on the .mmp Do not modify;
#X obj 538 214 send toGUI;
#N canvas 0 22 834 545 speedlim 0;
#X msg 83 139 1;
#X obj 57 164 spigot 1;
#X obj 87 93 t b b;
#X msg 112 139 0;
#X obj 85 115 delay 200;
#X obj 60 49 inlet;
#X obj 59 213 outlet;
#X connect 0 0 1 1;
#X connect 1 0 2 0;
#X connect 1 0 6 0;
#X connect 2 0 4 0;
#X connect 2 1 3 0;
#X connect 3 0 1 1;
#X connect 4 0 0 0;
#X connect 5 0 1 0;
#X restore 531 77 pd speedlim;
#N canvas 0 22 834 545 speedlim 0;
#X msg 83 139 1;
#X obj 57 164 spigot 1;
#X obj 87 93 t b b;
#X msg 112 139 0;
#X obj 85 115 delay 200;
#X obj 60 49 inlet;
#X obj 59 213 outlet;
#X connect 0 0 1 1;
#X connect 1 0 2 0;
#X connect 1 0 6 0;
#X connect 2 0 4 0;
#X connect 2 1 3 0;
#X connect 3 0 1 1;
#X connect 4 0 0 0;
#X connect 5 0 1 0;
#X restore 558 101 pd speedlim;
#N canvas 0 22 834 545 speedlim 0;
#X msg 83 139 1;
#X obj 57 164 spigot 1;
#X obj 87 93 t b b;
#X msg 112 139 0;
#X obj 85 115 delay 200;
#X obj 60 49 inlet;
#X obj 59 213 outlet;
#X connect 0 0 1 1;
#X connect 1 0 2 0;
#X connect 1 0 6 0;
#X connect 2 0 4 0;
#X connect 2 1 3 0;
#X connect 3 0 1 1;
#X connect 4 0 0 0;
#X connect 5 0 1 0;
#X restore 670 77 pd speedlim;
#N canvas 0 22 834 545 speedlim 0;
#X msg 83 139 1;
#X obj 57 164 spigot 1;
#X obj 87 93 t b b;
#X msg 112 139 0;
#X obj 85 115 delay 200;
#X obj 60 49 inlet;
#X obj 59 213 outlet;
#X connect 0 0 1 1;
#X connect 1 0 2 0;
#X connect 1 0 6 0;
#X connect 2 0 4 0;
#X connect 2 1 3 0;
#X connect 3 0 1 1;
#X connect 4 0 0 0;
#X connect 5 0 1 0;
#X restore 712 101 pd speedlim;
#X msg 538 122 list /tiltLabel x: \$1 y: \$2;
#X msg 558 145 list /accelLabel x: \$1 y: \$2 z: \$3;
#X msg 575 167 list /gyroLabel roll: \$1 pitch: \$2 yaw: \$3;
#X msg 595 191 list /motionLabel roll: \$1 pitch: \$2 yaw: \$3;
#X obj 546 389 vsl 16 136 0 127 0 0 empty empty empty 0 -9 0 10 #fcfcfc #000000 #000000 0 1;
#X obj 546 534 / 127;
#X obj 546 343 loadbang;
#X msg 546 365 127;
#X obj 613 343 receive fromGUI;
#X obj 613 371 list trim;
#X obj 613 399 route /mySlider;
#X obj 613 427 * 127;
#X text 528 9 Visualize sensor data on interface;
#X text 725 333 Control patch from GUI with a slider;
#X obj 207 280 float;
#X obj 229 503 tgl 15 0 empty empty empty 0 -6 0 8 #fcfcfc #000000 #000000 0 1;
#X floatatom 172 457 5 0 0 0 - - - 0;
#X floatatom 270 466 5 0 0 0 - - - 0;
#X obj 65 740 A2-bell-partial;
#N canvas 0 22 272 466 ringer 0;
#X obj 23 172 del 12;
#X obj 84 245 f 0;
#X obj 113 244 + 1;
#X msg 23 146 bang;
#X obj 84 290 sel 1;
#X msg 84 312 0;
#X msg 23 194 1;
#X msg 84 219 0;
#X obj 23 219 metro 60;
#X obj 84 266 > 12;
#X obj 23 72 f 0;
#X obj 54 72 + 1;
#X obj 23 121 select 0 4;
#X obj 23 50 metro 300;
#X obj 23 98 mod 15;
#X obj 23 25 inlet;
#X obj 25 403 outlet;
#X text 25 3 ringer;
#X obj 25 330 % 2;
#X obj 25 356 sel 0 1;
#X msg 25 380 860;
#X msg 78 379 865;
#X obj 78 403 outlet;
#X connect 0 0 6 0;
#X connect 1 0 2 0;
#X connect 1 0 9 0;
#X connect 1 0 18 0;
#X connect 2 0 1 1;
#X connect 3 0 0 0;
#X connect 3 0 7 0;
#X connect 4 0 5 0;
#X connect 5 0 8 0;
#X connect 6 0 8 0;
#X connect 7 0 1 0;
#X connect 8 0 1 0;
#X connect 9 0 4 0;
#X connect 10 0 11 0;
#X connect 10 0 14 0;
#X connect 11 0 10 1;
#X connect 12 0 3 0;
#X connect 12 1 3 0;
#X connect 13 0 10 0;
#X connect 14 0 12 0;
#X connect 15 0 13 0;
#X connect 18 0 19 0;
#X connect 19 0 20 0;
#X connect 19 1 21 0;
#X connect 20 0 16 0;
#X connect 21 0 22 0;
#X restore 245 535 pd ringer;
#X obj 64 691 pack f f f;
#X obj 262 747 A2-bell-partial;
#X obj 261 698 pack f f f;
#X obj 303 563 t b b f f f f f f f f f;
#X obj 471 748 A2-bell-partial;
#X obj 470 699 pack f f f;
#X msg 470 724 \$1 0.3 \$2 0.2 \$3 0.1 75;
#X obj 468 628 A3-bell-scale 1 11;
#X obj 502 651 A3-bell-scale 1 12;
#X obj 535 672 A3-bell-scale 1 15;
#X obj 64 620 A3-bell-scale 1 1;
#X msg 261 723 \$1 0.3 \$2 0.2 \$3 0.1 150;
#X obj 259 627 A3-bell-scale 1 5;
#X obj 293 650 A3-bell-scale 2 13;
#X obj 326 671 A3-bell-scale 2 15;
#X msg 64 716 \$1 0.05 \$2 0.05 \$3 0.05 600;
#X obj 130 664 A3-bell-scale 6 1;
#X obj 96 643 A3-bell-scale 1 3.3;
#X obj 262 859 *~ 10;
#X obj 261 880 dac~;
#X obj 271 339 < 90;
#X obj 172 335 > 240;
#X obj 220 461 ||;
#X connect 0 0 1 0;
#X connect 1 0 8 0;
#X connect 8 0 6 0;
#X connect 8 1 5 0;
#X connect 8 1 22 0;
#X connect 8 2 2 0;
#X connect 8 2 23 0;
#X connect 8 3 4 0;
#X connect 8 3 24 0;
#X connect 8 4 3 0;
#X connect 8 5 25 0;
#X connect 8 5 40 0;
#X connect 9 0 12 0;
#X connect 11 0 10 0;
#X connect 12 0 13 0;
#X connect 13 0 11 0;
#X connect 22 0 26 0;
#X connect 23 0 27 0;
#X connect 24 0 28 0;
#X connect 25 0 29 0;
#X connect 26 0 21 0;
#X connect 27 0 21 0;
#X connect 28 0 21 0;
#X connect 29 0 21 0;
#X connect 30 0 31 0;
#X connect 32 0 33 0;
#X connect 33 0 30 0;
#X connect 34 0 35 0;
#X connect 35 0 36 0;
#X connect 36 0 37 0;
#X connect 37 0 30 0;
#X connect 40 0 66 0;
#X connect 40 0 67 0;
#X connect 41 0 45 0;
#X connect 42 0 68 0;
#X connect 43 0 68 1;
#X connect 44 0 64 0;
#X connect 45 1 49 0;
#X connect 46 0 61 0;
#X connect 48 0 57 0;
#X connect 49 2 56 0;
#X connect 49 3 63 0;
#X connect 49 4 62 0;
#X connect 49 5 58 0;
#X connect 49 6 59 0;
#X connect 49 7 60 0;
#X connect 49 8 53 0;
#X connect 49 9 54 0;
#X connect 49 10 55 0;
#X connect 50 0 64 0;
#X connect 51 0 52 0;
#X connect 52 0 50 0;
#X connect 53 0 51 0;
#X connect 54 0 51 1;
#X connect 55 0 51 2;
#X connect 56 0 46 0;
#X connect 57 0 47 0;
#X connect 58 0 48 0;
#X connect 59 0 48 1;
#X connect 60 0 48 2;
#X connect 61 0 44 0;
#X connect 62 0 46 2;
#X connect 63 0 46 1;
#X connect 64 0 65 0;
#X connect 64 0 65 1;
#X connect 66 0 43 0;
#X connect 67 0 42 0;
#X connect 68 0 41 0;
