#N canvas 1 25 1920 966 10;
#X obj 46 8 receive fromSystem;
#X obj 46 33 list trim;
#X obj 168 119 unpack 0 0 0;
#X obj 331 119 unpack 0 0 0;
#X obj 250 119 unpack 0 0 0;
#X obj 95 119 unpack 0 0;
#X obj 411 119 float;
#X obj 47 119 int;
#X obj 152 878 dac~;
#X obj 152 854 *~ 0.2;
#X obj 95 530 vline~;
#X obj 73 594 pow~;
#X obj 73 570 sig~ 2.71828;
#X obj 73 780 osc~;
#X obj 73 668 +~ 80;
#X obj 57 803 *~;
#X obj 57 548 *~;
#X obj 73 756 +~;
#X obj 95 443 metro 500;
#X obj 88 735 *~;
#X obj 95 486 f;
#X msg 95 508 1 1 0 \, 0 \$1 1;
#X obj 111 465 * 200;
#X obj 88 690 osc~ 120;
#X obj 151 835 *~;
#X obj 126 377 line;
#X obj 167 570 sig~;
#X obj 73 646 *~;
#X obj 104 711 *~ 70;
#X obj 96 354 t b a;
#X obj 89 621 *~ 130;
#X obj 154 403 * 300;
#X obj 96 290 select 1;
#X text 169 273 (This detects when value changes from 0 to 1);
#X text 178 333 (This is from BOUNCING.pd);
#X text 176 9 1 GET SENSOR DATA FROM PHONE;
#X text 169 261 2 PERFORM LOGIC;
#X text 178 321 3 INSERT CODE FROM SOUND MODEL PATCH;
#X obj 96 266 change;
#X msg 96 332 1 \, 0 3000;
#X obj 47 58 route /shake /tilts /accel /gyro /motion /compass;
#X obj 965 48 receive fromGUI;
#X obj 965 160 send toSystem;
#X msg 965 132 list /enableLocation \$1;
#X obj 965 76 list trim;
#X obj 965 104 route /gpsToggle;
#X text 49 103 Shake;
#X text 104 103 Tilts;
#X text 170 103 Accel;
#X text 254 103 Gyro;
#X text 335 103 Motion;
#X text 410 103 Compass;
#X obj 96 242 > 0.2;
#X text 964 9 Enables compass on phone through a toggle on the .mmp Do not modify;
#X obj 538 214 send toGUI;
#N canvas 0 22 834 545 speedlim 0;
#X msg 83 139 1;
#X obj 57 164 spigot 1;
#X obj 87 93 t b b;
#X msg 112 139 0;
#X obj 85 115 delay 200;
#X obj 60 49 inlet;
#X obj 59 213 outlet;
#X connect 0 0 1 1;
#X connect 1 0 2 0;
#X connect 1 0 6 0;
#X connect 2 0 4 0;
#X connect 2 1 3 0;
#X connect 3 0 1 1;
#X connect 4 0 0 0;
#X connect 5 0 1 0;
#X restore 531 77 pd speedlim;
#N canvas 0 22 834 545 speedlim 0;
#X msg 83 139 1;
#X obj 57 164 spigot 1;
#X obj 87 93 t b b;
#X msg 112 139 0;
#X obj 85 115 delay 200;
#X obj 60 49 inlet;
#X obj 59 213 outlet;
#X connect 0 0 1 1;
#X connect 1 0 2 0;
#X connect 1 0 6 0;
#X connect 2 0 4 0;
#X connect 2 1 3 0;
#X connect 3 0 1 1;
#X connect 4 0 0 0;
#X connect 5 0 1 0;
#X restore 558 101 pd speedlim;
#N canvas 0 22 834 545 speedlim 0;
#X msg 83 139 1;
#X obj 57 164 spigot 1;
#X obj 87 93 t b b;
#X msg 112 139 0;
#X obj 85 115 delay 200;
#X obj 60 49 inlet;
#X obj 59 213 outlet;
#X connect 0 0 1 1;
#X connect 1 0 2 0;
#X connect 1 0 6 0;
#X connect 2 0 4 0;
#X connect 2 1 3 0;
#X connect 3 0 1 1;
#X connect 4 0 0 0;
#X connect 5 0 1 0;
#X restore 670 77 pd speedlim;
#N canvas 0 22 834 545 speedlim 0;
#X msg 83 139 1;
#X obj 57 164 spigot 1;
#X obj 87 93 t b b;
#X msg 112 139 0;
#X obj 85 115 delay 200;
#X obj 60 49 inlet;
#X obj 59 213 outlet;
#X connect 0 0 1 1;
#X connect 1 0 2 0;
#X connect 1 0 6 0;
#X connect 2 0 4 0;
#X connect 2 1 3 0;
#X connect 3 0 1 1;
#X connect 4 0 0 0;
#X connect 5 0 1 0;
#X restore 712 101 pd speedlim;
#X msg 538 122 list /tiltLabel x: \$1 y: \$2;
#X msg 558 145 list /accelLabel x: \$1 y: \$2 z: \$3;
#X msg 575 167 list /gyroLabel roll: \$1 pitch: \$2 yaw: \$3;
#X msg 595 191 list /motionLabel roll: \$1 pitch: \$2 yaw: \$3;
#X text 4 228 ----------------------------------------------------------------------------------------------------------------------------------------------------------------------------------------------------------------------------, f 220;
#X obj 546 389 vsl 16 136 0 127 0 0 empty empty empty 0 -9 0 10 #fcfcfc #000000 #000000 0 1;
#X obj 546 534 / 127;
#X obj 546 343 loadbang;
#X msg 546 365 127;
#X obj 154 423 * 1;
#X obj 613 343 receive fromGUI;
#X obj 613 371 list trim;
#X obj 613 399 route /mySlider;
#X obj 613 427 * 127;
#X text 528 9 Visualize sensor data on interface;
#X text 725 333 Control patch from GUI with a slider;
#X text 6 305 -----------------------------------------------------------------------------------------------------------------------------------------------------------------------------------------------------------------------------, f 221;
#X connect 0 0 1 0;
#X connect 1 0 40 0;
#X connect 5 0 52 0;
#X connect 9 0 8 0;
#X connect 9 0 8 1;
#X connect 10 0 11 1;
#X connect 10 0 16 0;
#X connect 10 0 16 1;
#X connect 11 0 27 0;
#X connect 12 0 11 0;
#X connect 13 0 15 1;
#X connect 14 0 17 0;
#X connect 15 0 24 0;
#X connect 16 0 15 0;
#X connect 17 0 13 0;
#X connect 18 0 20 0;
#X connect 19 0 17 1;
#X connect 20 0 21 0;
#X connect 21 0 10 0;
#X connect 22 0 20 1;
#X connect 23 0 19 0;
#X connect 24 0 9 0;
#X connect 25 0 22 0;
#X connect 25 0 26 0;
#X connect 25 0 31 0;
#X connect 26 0 28 0;
#X connect 26 0 24 1;
#X connect 26 0 30 0;
#X connect 27 0 14 0;
#X connect 28 0 19 1;
#X connect 29 0 18 0;
#X connect 29 1 25 0;
#X connect 30 0 27 1;
#X connect 31 0 68 0;
#X connect 32 0 39 0;
#X connect 38 0 32 0;
#X connect 39 0 29 0;
#X connect 40 0 7 0;
#X connect 40 1 5 0;
#X connect 40 1 55 0;
#X connect 40 2 2 0;
#X connect 40 2 56 0;
#X connect 40 3 4 0;
#X connect 40 3 57 0;
#X connect 40 4 3 0;
#X connect 40 5 6 0;
#X connect 40 5 58 0;
#X connect 41 0 44 0;
#X connect 43 0 42 0;
#X connect 44 0 45 0;
#X connect 45 0 43 0;
#X connect 52 0 38 0;
#X connect 55 0 59 0;
#X connect 56 0 60 0;
#X connect 57 0 61 0;
#X connect 58 0 62 0;
#X connect 59 0 54 0;
#X connect 60 0 54 0;
#X connect 61 0 54 0;
#X connect 62 0 54 0;
#X connect 64 0 65 0;
#X connect 65 0 68 1;
#X connect 66 0 67 0;
#X connect 67 0 64 0;
#X connect 68 0 18 1;
#X connect 69 0 70 0;
#X connect 70 0 71 0;
#X connect 71 0 72 0;
#X connect 72 0 64 0;
