#N canvas 4 0 1920 966 10;
#X obj 46 8 receive fromSystem;
#X obj 46 33 list trim;
#X obj 331 119 unpack 0 0 0;
#X obj 95 119 unpack 0 0;
#X obj 47 119 int;
#X text 176 9 1 GET SENSOR DATA FROM PHONE;
#X obj 47 58 route /shake /tilts /accel /gyro /motion /compass;
#X obj 965 48 receive fromGUI;
#X obj 965 160 send toSystem;
#X msg 965 132 list /enableLocation \$1;
#X obj 965 76 list trim;
#X obj 965 104 route /gpsToggle;
#X text 49 103 Shake;
#X text 104 103 Tilts;
#X text 335 103 Motion;
#X text 964 9 Enables compass on phone through a toggle on the .mmp Do not modify;
#X obj 538 214 send toGUI;
#N canvas 0 22 834 545 speedlim 0;
#X msg 83 139 1;
#X obj 57 164 spigot 1;
#X obj 87 93 t b b;
#X msg 112 139 0;
#X obj 85 115 delay 200;
#X obj 60 49 inlet;
#X obj 59 213 outlet;
#X connect 0 0 1 1;
#X connect 1 0 2 0;
#X connect 1 0 6 0;
#X connect 2 0 4 0;
#X connect 2 1 3 0;
#X connect 3 0 1 1;
#X connect 4 0 0 0;
#X connect 5 0 1 0;
#X restore 531 77 pd speedlim;
#N canvas 0 22 834 545 speedlim 0;
#X msg 83 139 1;
#X obj 57 164 spigot 1;
#X obj 87 93 t b b;
#X msg 112 139 0;
#X obj 85 115 delay 200;
#X obj 60 49 inlet;
#X obj 59 213 outlet;
#X connect 0 0 1 1;
#X connect 1 0 2 0;
#X connect 1 0 6 0;
#X connect 2 0 4 0;
#X connect 2 1 3 0;
#X connect 3 0 1 1;
#X connect 4 0 0 0;
#X connect 5 0 1 0;
#X restore 558 101 pd speedlim;
#N canvas 0 22 834 545 speedlim 0;
#X msg 83 139 1;
#X obj 57 164 spigot 1;
#X obj 87 93 t b b;
#X msg 112 139 0;
#X obj 85 115 delay 200;
#X obj 60 49 inlet;
#X obj 59 213 outlet;
#X connect 0 0 1 1;
#X connect 1 0 2 0;
#X connect 1 0 6 0;
#X connect 2 0 4 0;
#X connect 2 1 3 0;
#X connect 3 0 1 1;
#X connect 4 0 0 0;
#X connect 5 0 1 0;
#X restore 670 77 pd speedlim;
#N canvas 0 22 834 545 speedlim 0;
#X msg 83 139 1;
#X obj 57 164 spigot 1;
#X obj 87 93 t b b;
#X msg 112 139 0;
#X obj 85 115 delay 200;
#X obj 60 49 inlet;
#X obj 59 213 outlet;
#X connect 0 0 1 1;
#X connect 1 0 2 0;
#X connect 1 0 6 0;
#X connect 2 0 4 0;
#X connect 2 1 3 0;
#X connect 3 0 1 1;
#X connect 4 0 0 0;
#X connect 5 0 1 0;
#X restore 712 101 pd speedlim;
#X msg 538 122 list /tiltLabel x: \$1 y: \$2;
#X msg 558 145 list /accelLabel x: \$1 y: \$2 z: \$3;
#X msg 575 167 list /gyroLabel roll: \$1 pitch: \$2 yaw: \$3;
#X msg 595 191 list /motionLabel roll: \$1 pitch: \$2 yaw: \$3;
#X obj 546 389 vsl 16 136 0 127 0 0 empty empty empty 0 -9 0 10 #fcfcfc #000000 #000000 0 1;
#X obj 546 534 / 127;
#X obj 546 343 loadbang;
#X msg 546 365 127;
#X obj 613 343 receive fromGUI;
#X obj 613 371 list trim;
#X obj 613 399 route /mySlider;
#X obj 613 427 * 127;
#X text 528 9 Visualize sensor data on interface;
#X text 725 333 Control patch from GUI with a slider;
#X obj 193 116 unpack 0 0 0;
#X obj 218 1032 noise~;
#X obj 216 1175 dac~;
#X obj 218 1054 *~;
#X obj 139 557 bng 15 250 50 0 empty empty empty 0 -6 0 8 #fcfcfc #000000 #000000;
#X obj 260 645 pow~;
#X msg 339 761 0;
#X obj 274 834 *~;
#X obj 274 783 phasor~ 20;
#X obj 274 760 *~ -1;
#X obj 274 900 *~;
#X obj 260 563 sig~ 15;
#X obj 217 1128 hip~ 90;
#X obj 274 673 *~ 6;
#N canvas 78 280 337 375 clamped-modes 0;
#X msg 98 30 1 6.267 17.55 34.39;
#X obj 113 116 *~;
#X obj 98 51 unpack f f f f;
#X obj 144 116 *~;
#X obj 175 115 *~;
#X obj 82 153 cos~;
#X obj 113 153 cos~;
#X obj 144 153 cos~;
#X obj 175 153 cos~;
#X obj 82 116 *~;
#X obj 144 334 *~;
#X obj 82 177 *~ 0.5;
#X obj 113 196 *~ 0.25;
#X obj 144 215 *~ 0.125;
#X obj 175 234 *~ 0.0625;
#X obj 8 6 inlet~ drive;
#X obj 176 267 inlet env;
#X obj 98 6 loadbang;
#X text 244 27 Olsen pp. 76;
#X msg 176 288 1500;
#N canvas 0 0 186 198 quenv 0;
#X msg 8 28 0 \, 1 0 0 \, 0 \$1 0;
#X obj 8 50 vline~;
#X obj 8 75 *~;
#X obj 8 5 inlet;
#X obj 8 126 outlet~;
#X obj 8 101 *~;
#X connect 0 0 1 0;
#X connect 1 0 2 0;
#X connect 1 0 2 1;
#X connect 2 0 5 0;
#X connect 2 0 5 1;
#X connect 3 0 0 0;
#X connect 5 0 4 0;
#X restore 176 309 pd quenv;
#X obj 143 356 outlet~;
#X connect 0 0 2 0;
#X connect 1 0 6 0;
#X connect 2 0 9 1;
#X connect 2 1 1 1;
#X connect 2 2 3 1;
#X connect 2 3 4 1;
#X connect 3 0 7 0;
#X connect 4 0 8 0;
#X connect 5 0 11 0;
#X connect 6 0 12 0;
#X connect 7 0 13 0;
#X connect 8 0 14 0;
#X connect 9 0 5 0;
#X connect 10 0 21 0;
#X connect 11 0 10 0;
#X connect 12 0 10 0;
#X connect 13 0 10 0;
#X connect 14 0 10 0;
#X connect 15 0 1 0;
#X connect 15 0 3 0;
#X connect 15 0 4 0;
#X connect 15 0 9 0;
#X connect 16 0 19 0;
#X connect 17 0 0 0;
#X connect 19 0 20 0;
#X connect 20 0 10 1;
#X restore 369 864 pd clamped-modes;
#N canvas 0 0 478 298 free-modes 0;
#X obj 107 53 unpack f f f f f f;
#X obj 4 127 inlet~;
#X obj 155 249 outlet~;
#X msg 107 32 1 2.7565 5.40392 8.93295 13.3443 18.6379;
#X obj 107 9 loadbang;
#X text 177 10 from Benson pp.128;
#X obj 356 120 inlet res;
#X obj 4 206 vcf~ 1 1;
#X obj 64 206 vcf~ 1 1;
#X obj 124 206 vcf~ 1 1;
#X obj 184 206 vcf~ 1 1;
#X obj 244 206 vcf~ 1 1;
#X obj 305 206 vcf~ 1 1;
#X obj 89 124 *~;
#X obj 119 124 *~;
#X obj 149 124 *~;
#X obj 179 124 *~;
#X obj 209 124 *~;
#X obj 239 124 *~;
#X obj 35 37 inlet~;
#X connect 0 0 13 1;
#X connect 0 1 14 1;
#X connect 0 2 15 1;
#X connect 0 3 16 1;
#X connect 0 4 17 1;
#X connect 0 5 18 1;
#X connect 1 0 7 0;
#X connect 1 0 8 0;
#X connect 1 0 9 0;
#X connect 1 0 10 0;
#X connect 1 0 11 0;
#X connect 1 0 12 0;
#X connect 3 0 0 0;
#X connect 4 0 3 0;
#X connect 6 0 7 2;
#X connect 6 0 8 2;
#X connect 6 0 9 2;
#X connect 6 0 10 2;
#X connect 6 0 11 2;
#X connect 6 0 12 2;
#X connect 7 0 2 0;
#X connect 8 0 2 0;
#X connect 9 0 2 0;
#X connect 10 0 2 0;
#X connect 11 0 2 0;
#X connect 12 0 2 0;
#X connect 13 0 7 1;
#X connect 14 0 8 1;
#X connect 15 0 9 1;
#X connect 16 0 10 1;
#X connect 17 0 11 1;
#X connect 18 0 12 1;
#X connect 19 0 13 0;
#X connect 19 0 14 0;
#X connect 19 0 15 0;
#X connect 19 0 16 0;
#X connect 19 0 17 0;
#X connect 19 0 18 0;
#X restore 218 1100 pd free-modes;
#X obj 218 1076 lop~ 4000;
#X obj 274 739 +~;
#X obj 339 738 r trig;
#X obj 139 576 s trig;
#X obj 476 841 r trig;
#X obj 283 583 r trig;
#X msg 304 1078 80;
#X obj 304 1058 loadbang;
#X obj 369 912 *~ 0.2;
#X obj 217 1149 *~ 4;
#N canvas 0 0 186 198 quenv 0;
#X msg 8 28 0 \, 1 0 0 \, 0 \$1 0;
#X obj 8 50 vline~;
#X obj 8 75 *~;
#X obj 8 5 inlet;
#X obj 8 126 outlet~;
#X obj 8 101 *~;
#X connect 0 0 1 0;
#X connect 1 0 2 0;
#X connect 1 0 2 1;
#X connect 2 0 5 0;
#X connect 2 0 5 1;
#X connect 3 0 0 0;
#X connect 5 0 4 0;
#X restore 283 625 pd quenv;
#X msg 283 604 7000;
#X obj 141 632 sig~;
#X obj 141 749 s~ freq;
#X obj 290 696 r~ freq;
#X obj 290 717 /~ 4;
#X obj 293 941 r~ freq;
#X obj 276 962 *~ 0.1;
#X obj 261 983 *~;
#X obj 260 1004 +~;
#X obj 141 727 +~;
#X obj 158 705 *~;
#X obj 174 687 nbx 5 12 1 6 0 1 empty empty vibrato 0 -6 1 8 #fcfcfc #000000 #000000 6 256;
#X obj 141 615 nbx 5 12 20 800 0 1 empty empty frequency 0 -6 1 8 #fcfcfc #000000 #000000 426 256;
#X obj 158 652 osc~ 5;
#X obj 131 378 expr if( $f1 <1 && $f1 >0.9 \, 1 \, 0);
#X obj 126 423 change;
#X obj 120 451 select 1;
#X connect 0 0 1 0;
#X connect 1 0 6 0;
#X connect 3 1 76 0;
#X connect 6 0 4 0;
#X connect 6 1 17 0;
#X connect 6 1 3 0;
#X connect 6 2 18 0;
#X connect 6 3 19 0;
#X connect 6 3 35 0;
#X connect 6 4 2 0;
#X connect 6 5 20 0;
#X connect 7 0 10 0;
#X connect 9 0 8 0;
#X connect 10 0 11 0;
#X connect 11 0 9 0;
#X connect 17 0 21 0;
#X connect 18 0 22 0;
#X connect 19 0 23 0;
#X connect 20 0 24 0;
#X connect 21 0 16 0;
#X connect 22 0 16 0;
#X connect 23 0 16 0;
#X connect 24 0 16 0;
#X connect 25 0 26 0;
#X connect 27 0 28 0;
#X connect 28 0 25 0;
#X connect 29 0 30 0;
#X connect 30 0 31 0;
#X connect 31 0 32 0;
#X connect 32 0 25 0;
#X connect 36 0 38 0;
#X connect 38 0 51 0;
#X connect 39 0 54 0;
#X connect 40 0 48 0;
#X connect 40 0 69 0;
#X connect 41 0 43 1;
#X connect 42 0 45 0;
#X connect 43 0 49 0;
#X connect 43 0 42 0;
#X connect 43 0 42 1;
#X connect 44 0 43 0;
#X connect 45 0 38 1;
#X connect 46 0 40 0;
#X connect 47 0 60 0;
#X connect 48 0 52 0;
#X connect 49 0 59 0;
#X connect 49 0 45 1;
#X connect 50 0 47 0;
#X connect 51 0 50 0;
#X connect 52 0 44 0;
#X connect 53 0 41 0;
#X connect 55 0 49 1;
#X connect 56 0 62 0;
#X connect 57 0 50 2;
#X connect 58 0 57 0;
#X connect 59 0 47 0;
#X connect 60 0 37 0;
#X connect 60 0 37 1;
#X connect 61 0 40 1;
#X connect 62 0 61 0;
#X connect 63 0 71 0;
#X connect 65 0 66 0;
#X connect 66 0 52 1;
#X connect 67 0 68 0;
#X connect 67 0 70 1;
#X connect 68 0 69 1;
#X connect 69 0 70 0;
#X connect 70 0 50 1;
#X connect 71 0 64 0;
#X connect 72 0 71 1;
#X connect 73 0 72 1;
#X connect 74 0 63 0;
#X connect 75 0 72 0;
#X connect 76 0 77 0;
#X connect 77 0 78 0;
#X connect 78 0 39 0;
