#N canvas 0 22 750 503 10;
#X obj 144 340 A2-bell-partial;
#X obj 341 491 dac~;
#X obj 324 110 tgl 15 0 empty empty call 0 -6 0 8 -260818 -1 -1 0 1
;
#N canvas 0 22 272 490 ringer 0;
#X obj 23 172 del 12;
#X obj 84 245 f 0;
#X obj 113 244 + 1;
#X msg 23 146 bang;
#X obj 84 290 sel 1;
#X msg 84 312 0;
#X msg 23 194 1;
#X msg 84 219 0;
#X obj 23 219 metro 60;
#X obj 84 266 > 12;
#X obj 23 72 f 0;
#X obj 54 72 + 1;
#X obj 23 121 select 0 4;
#X obj 23 50 metro 300;
#X obj 23 98 mod 15;
#X obj 23 25 inlet;
#X obj 25 403 outlet;
#X text 25 3 ringer;
#X obj 25 330 % 2;
#X obj 25 356 sel 0 1;
#X msg 25 380 860;
#X msg 78 379 865;
#X obj 78 403 outlet;
#X connect 0 0 6 0;
#X connect 1 0 2 0;
#X connect 1 0 9 0;
#X connect 1 0 18 0;
#X connect 2 0 1 1;
#X connect 3 0 0 0;
#X connect 3 0 7 0;
#X connect 4 0 5 0;
#X connect 5 0 8 0;
#X connect 6 0 8 0;
#X connect 7 0 1 0;
#X connect 8 0 1 0;
#X connect 9 0 4 0;
#X connect 10 0 11 0;
#X connect 10 0 14 0;
#X connect 11 0 10 1;
#X connect 12 0 3 0;
#X connect 12 1 3 0;
#X connect 13 0 10 0;
#X connect 14 0 12 0;
#X connect 15 0 13 0;
#X connect 18 0 19 0;
#X connect 19 0 20 0;
#X connect 19 1 21 0;
#X connect 20 0 16 0;
#X connect 21 0 22 0;
#X restore 324 135 pd ringer;
#X obj 143 291 pack f f f;
#X obj 341 347 A2-bell-partial;
#X obj 340 298 pack f f f;
#X obj 382 163 t b b f f f f f f f f f;
#X obj 550 348 A2-bell-partial;
#X obj 549 299 pack f f f;
#X obj 341 459 *~ 0.33333;
#X msg 549 324 \$1 0.3 \$2 0.2 \$3 0.1 75;
#X obj 547 228 A3-bell-scale 1 11;
#X obj 581 251 A3-bell-scale 1 12;
#X obj 614 272 A3-bell-scale 1 15;
#X obj 143 220 A3-bell-scale 1 1;
#X msg 340 323 \$1 0.3 \$2 0.2 \$3 0.1 150;
#X obj 338 227 A3-bell-scale 1 5;
#X obj 372 250 A3-bell-scale 2 13;
#X obj 405 271 A3-bell-scale 2 15;
#X msg 143 316 \$1 0.05 \$2 0.05 \$3 0.05 600;
#X obj 209 264 A3-bell-scale 6 1;
#X obj 175 243 A3-bell-scale 1 3.3;
#X msg 314 31 1;
#X obj 314 55 trigger bang float;
#X msg 175 101 0;
#X obj 176 76 delay 1000;
#X connect 0 0 10 0;
#X connect 2 0 3 0;
#X connect 3 1 7 0;
#X connect 4 0 20 0;
#X connect 6 0 16 0;
#X connect 7 2 15 0;
#X connect 7 3 22 0;
#X connect 7 4 21 0;
#X connect 7 5 17 0;
#X connect 7 6 18 0;
#X connect 7 7 19 0;
#X connect 7 8 12 0;
#X connect 7 9 13 0;
#X connect 7 10 14 0;
#X connect 8 0 10 0;
#X connect 9 0 11 0;
#X connect 10 0 1 0;
#X connect 10 0 1 1;
#X connect 11 0 8 0;
#X connect 12 0 9 0;
#X connect 13 0 9 1;
#X connect 14 0 9 2;
#X connect 15 0 4 0;
#X connect 16 0 5 0;
#X connect 17 0 6 0;
#X connect 18 0 6 1;
#X connect 19 0 6 2;
#X connect 20 0 0 0;
#X connect 21 0 4 2;
#X connect 22 0 4 1;
#X connect 23 0 24 0;
#X connect 24 0 26 0;
#X connect 24 1 2 0;
#X connect 25 0 2 0;
#X connect 26 0 25 0;
